<svg width="1200" height="630" viewBox="0 0 1200 630" fill="none" xmlns="http://www.w3.org/2000/svg">
  <defs>
    <linearGradient id="bg" x1="120" y1="90" x2="1080" y2="560" gradientUnits="userSpaceOnUse">
      <stop stop-color="#B63D76"/>
      <stop offset="0.58" stop-color="#D45B8D"/>
      <stop offset="1" stop-color="#F39BC3"/>
    </linearGradient>
  </defs>
  <rect width="1200" height="630" rx="48" fill="#FFF7FB"/>
  <rect x="54" y="54" width="1092" height="522" rx="40" fill="url(#bg)"/>
  <circle cx="960" cy="130" r="120" fill="#FFFFFF" fill-opacity="0.08"/>
  <circle cx="996" cy="468" r="154" fill="#FFFFFF" fill-opacity="0.06"/>
  <text x="108" y="176" fill="#FFE2F0" font-family="Manrope, Arial, sans-serif" font-size="28" font-weight="700" letter-spacing="4">PERSONAL PORTFOLIO</text>
  <text x="108" y="284" fill="#FFFFFF" font-family="Manrope, Arial, sans-serif" font-size="72" font-weight="800">Kartika Devi Lestari</text>
  <text x="108" y="352" fill="#FFEAF4" font-family="Manrope, Arial, sans-serif" font-size="32" font-weight="600">Accounting Student &amp; Administration Enthusiast</text>
  <rect x="108" y="402" width="332" height="64" rx="18" fill="#F39BC3"/>
  <text x="274" y="443" text-anchor="middle" fill="#6E1F44" font-family="Manrope, Arial, sans-serif" font-size="22" font-weight="800">Modern Resume Website</text>
  <path d="M692 404C757 366 826 348 884 350C954 353 1014 383 1050 442V516H692V404Z" fill="#FFFFFF" fill-opacity="0.1"/>
  <circle cx="786" cy="338" r="84" fill="#FFFFFF" fill-opacity="0.14"/>
  <circle cx="786" cy="336" r="56" fill="#FFFFFF" fill-opacity="0.9"/>
  <path d="M754 350C764 330 775 320 786 320C797 320 808 330 818 350C824 362 828 378 830 396H742C744 378 748 362 754 350Z" fill="#6E1F44" fill-opacity="0.8"/>
</svg>
